<svg version="1.1" id="Layer_1" xmlns="http://www.w3.org/2000/svg" xmlns:xlink="http://www.w3.org/1999/xlink" x="0px" y="0px"
	 width="100%" viewBox="0 0 512 512" enable-background="new 0 0 512 512" xml:space="preserve">
<path fill="#FD6814" opacity="1.000000" stroke="none" 
	d="
M225.000000,1.000001 
	C246.020889,1.000000 267.041779,1.000000 288.312805,1.396171 
	C289.405762,2.192173 290.211121,2.799915 291.097229,2.959593 
	C299.743256,4.517644 308.509064,5.555207 317.038361,7.589574 
	C341.827118,13.502077 365.143311,23.010372 387.219757,35.919590 
	C415.436584,52.419392 439.258484,73.867516 459.438171,99.240784 
	C472.294678,115.406097 482.813202,133.185471 491.204590,152.267303 
	C501.165649,174.918442 508.033203,198.277435 511.078827,222.805679 
	C511.178009,223.604309 512.335754,224.271530 513.000000,225.000000 
	C513.000000,233.020905 513.000000,241.041809 512.700684,249.385925 
	C510.954407,248.332550 509.476746,246.986588 508.064758,245.574982 
	C465.520660,203.042542 422.991821,160.494888 380.410126,118.000160 
	C378.835266,116.428535 376.754944,115.363419 374.933960,114.044510 
	C374.957733,114.026756 374.975616,114.082596 374.890137,113.845856 
	C374.553345,113.394218 374.302032,113.179329 374.024414,112.980240 
	C373.998138,112.996033 374.045624,112.955185 373.995697,112.636948 
	C373.498993,111.905426 373.052185,111.492142 372.351227,110.884201 
	C356.663116,91.586998 336.690308,82.249443 312.115814,82.767761 
	C306.185272,82.892845 299.911865,81.699173 296.449829,86.751289 
	C293.037750,85.230499 290.172913,82.941383 287.220093,82.821602 
	C277.145233,82.412872 267.039459,82.767761 256.481201,82.796066 
	C214.483032,82.760880 172.949081,82.760880 130.999695,82.760880 
	C130.999695,85.308617 130.999695,87.108353 130.999695,88.908081 
	C130.999695,112.709076 131.471481,136.522385 130.850723,160.307175 
	C130.352264,179.406693 135.179138,196.086456 148.432068,209.933807 
	C130.032654,218.127655 122.230354,235.796432 128.915894,252.979141 
	C131.758163,260.284149 137.369537,265.115356 143.036896,270.363525 
	C148.740616,276.146820 154.403763,281.589020 160.168823,287.419556 
	C161.980682,301.147522 165.802612,313.802216 172.422729,325.567108 
	C178.534592,336.428802 186.649490,345.592468 196.160248,353.947357 
	C196.552826,354.468109 196.846222,354.713562 197.083191,354.946350 
	C197.026779,354.933624 197.063904,354.824097 197.172928,355.075500 
	C197.582169,355.521332 197.882401,355.715820 198.119370,355.912598 
	C198.056122,355.914886 198.072998,355.789459 198.225021,356.076019 
	C198.972946,356.563446 199.568863,356.764313 200.370728,357.005554 
	C200.855789,357.171417 201.022141,357.384796 201.076721,358.053101 
	C206.750046,364.297974 212.422333,370.175842 218.124786,376.471924 
	C218.026443,385.196106 213.398315,391.198242 207.643555,396.710388 
	C204.972885,395.737030 204.114349,391.681732 200.280792,393.804047 
	C193.772049,397.407349 187.067627,400.657196 180.090515,404.067444 
	C171.504974,407.116211 163.274353,410.153107 154.675201,413.197083 
	C140.757614,418.149841 127.189713,423.044678 113.665207,428.056610 
	C102.028023,432.369141 90.440338,436.815186 78.558044,441.009399 
	C70.335602,432.189453 61.694660,424.091980 54.588280,414.818542 
	C42.007618,398.401428 31.178686,380.868439 22.800285,361.765259 
	C12.858565,339.097656 5.961829,315.736298 2.921174,291.195984 
	C2.822170,290.396912 1.664280,289.729034 0.999998,289.000000 
	C1.000000,267.979095 1.000000,246.958206 1.396174,225.687195 
	C2.186002,224.760559 2.786941,224.128403 2.942635,223.400955 
	C5.930217,209.442093 8.225920,195.298248 11.963414,181.545593 
	C17.400677,161.538422 26.309717,142.945724 36.903111,125.081039 
	C53.218796,97.566284 74.368538,74.302551 99.236923,54.557465 
	C115.415787,41.711712 133.169296,31.165430 152.265488,22.790060 
	C174.925705,12.851544 198.277542,5.966782 222.805679,2.921187 
	C223.604324,2.822021 224.271530,1.664281 225.000000,1.000001 
z"/>
<path fill="#F04500" opacity="1.000000" stroke="none" 
	d="
M374.910187,114.062263 
	C376.754944,115.363419 378.835266,116.428535 380.410126,118.000160 
	C422.991821,160.494888 465.520660,203.042542 508.064758,245.574982 
	C509.476746,246.986588 510.954407,248.332550 512.700684,249.854553 
	C513.000000,262.687561 513.000000,275.375122 512.589844,288.373901 
	C511.798828,289.361115 511.195465,289.998688 511.070923,290.719025 
	C509.574982,299.370117 508.646210,308.152069 506.610840,316.670807 
	C501.079987,339.819427 492.622131,361.880127 480.821869,382.619629 
	C468.179169,404.839752 452.925385,424.989502 433.779877,442.005432 
	C408.687225,432.267883 383.833618,422.810181 358.643097,413.185699 
	C350.164764,410.036194 342.023346,407.053467 333.576416,403.908752 
	C327.659576,400.889801 321.879333,398.314148 316.494537,395.080078 
	C312.715088,392.810150 309.868622,392.947083 306.768768,396.192505 
	C304.974121,394.781494 303.396454,393.581696 302.100922,392.130096 
	C295.886444,385.166901 295.611664,376.617462 296.041229,367.691406 
	C317.785034,356.756287 334.556915,341.306854 344.983429,319.367798 
	C351.509766,305.635345 354.175598,291.083038 354.859009,275.755981 
	C356.020996,274.878815 356.969421,274.266876 358.148254,273.611053 
	C358.707886,273.476654 358.927094,273.269745 359.023743,272.980804 
	C359.011078,273.015228 358.940948,272.993683 359.345673,273.098724 
	C374.424408,271.153656 386.045502,258.490234 387.096436,243.824448 
	C388.043030,230.615295 382.543152,220.680603 372.485168,212.637177 
	C380.815735,204.087784 386.114288,194.247574 386.608490,182.686493 
	C387.619080,159.044861 388.931183,135.202469 374.910187,114.062263 
z"/>
<path fill="#000000" opacity="1.000000" stroke="none" 
	d="
M0.999998,289.468658 
	C1.664280,289.729034 2.822170,290.396912 2.921174,291.195984 
	C5.961829,315.736298 12.858565,339.097656 22.800285,361.765259 
	C31.178686,380.868439 42.007618,398.401428 54.588280,414.818542 
	C61.694660,424.091980 70.335602,432.189453 78.722870,441.301910 
	C107.257416,468.922211 139.776886,488.734650 177.327026,500.936127 
	C181.482407,502.209351 185.191010,503.722198 189.047760,504.507935 
	C197.355957,506.200470 205.740356,507.519073 214.221771,509.369202 
	C217.180481,510.152679 220.038315,510.432220 222.824753,511.039429 
	C223.652908,511.219940 224.280502,512.320862 225.000000,513.000000 
	C150.406296,513.000000 75.812599,513.000000 1.000000,513.000000 
	C1.000000,438.645905 1.000000,364.291626 0.999998,289.468658 
z"/>
<path fill="#000000" opacity="1.000000" stroke="none" 
	d="
M513.000000,224.531342 
	C512.335754,224.271530 511.178009,223.604309 511.078827,222.805679 
	C508.033203,198.277435 501.165649,174.918442 491.204590,152.267303 
	C482.813202,133.185471 472.294678,115.406097 459.438171,99.240784 
	C439.258484,73.867516 415.436584,52.419392 387.219757,35.919590 
	C365.143311,23.010372 341.827118,13.502077 317.038361,7.589574 
	C308.509064,5.555207 299.743256,4.517644 291.097229,2.959593 
	C290.211121,2.799915 289.405762,2.192173 288.781464,1.396171 
	C363.593719,1.000000 438.187408,1.000000 513.000000,1.000000 
	C513.000000,75.354088 513.000000,149.708389 513.000000,224.531342 
z"/>
<path fill="#000000" opacity="1.000000" stroke="none" 
	d="
M434.018951,442.285309 
	C452.925385,424.989502 468.179169,404.839752 480.821869,382.619629 
	C492.622131,361.880127 501.079987,339.819427 506.610840,316.670807 
	C508.646210,308.152069 509.574982,299.370117 511.070923,290.719025 
	C511.195465,289.998688 511.798828,289.361115 512.589844,288.842529 
	C513.000000,363.593719 513.000000,438.187408 513.000000,513.000000 
	C438.645905,513.000000 364.291626,513.000000 289.134644,512.661499 
	C291.869324,511.518860 295.406708,510.714691 299.353577,509.945435 
	C304.945374,508.971619 310.197845,508.229401 315.292603,506.888000 
	C321.942841,505.137024 328.468109,502.911469 335.433502,500.891724 
	C336.616425,500.731873 337.435303,500.641235 338.206268,500.398407 
	C357.112122,494.443634 375.006836,486.123596 391.705414,475.588806 
	C406.910736,465.996063 421.721008,455.677155 434.018951,442.285309 
z"/>
<path fill="#000000" opacity="1.000000" stroke="none" 
	d="
M224.531342,1.000001 
	C224.271530,1.664281 223.604324,2.822021 222.805679,2.921187 
	C198.277542,5.966782 174.925705,12.851544 152.265488,22.790060 
	C133.169296,31.165430 115.415787,41.711712 99.236923,54.557465 
	C74.368538,74.302551 53.218796,97.566284 36.903111,125.081039 
	C26.309717,142.945724 17.400677,161.538422 11.963414,181.545593 
	C8.225920,195.298248 5.930217,209.442093 2.942635,223.400955 
	C2.786941,224.128403 2.186002,224.760559 1.396174,225.218536 
	C1.000000,150.406296 1.000000,75.812576 1.000000,1.000000 
	C75.354088,1.000000 149.708389,1.000000 224.531342,1.000001 
z"/>
<path fill="#C7FDF9" opacity="1.000000" stroke="none" 
	d="
M225.460632,513.000000 
	C224.280502,512.320862 223.652908,511.219940 222.824753,511.039429 
	C220.038315,510.432220 217.180481,510.152679 214.525146,509.205017 
	C208.938385,491.118042 203.149002,473.582794 197.422623,456.026947 
	C192.202560,440.023407 187.050858,423.997620 182.185272,408.124634 
	C189.670410,418.855225 196.871674,429.421082 203.999710,440.036102 
	C212.411423,452.562836 220.759796,465.132080 229.468826,478.182159 
	C232.228699,474.822754 234.620026,471.911957 237.190521,469.336456 
	C238.594589,474.779297 239.819489,479.886871 240.927841,485.383667 
	C239.540878,494.848602 238.270447,503.924286 237.000000,513.000000 
	C233.307098,513.000000 229.614182,513.000000 225.460632,513.000000 
z"/>
<path fill="#99F4EF" opacity="1.000000" stroke="none" 
	d="
M298.944092,509.910522 
	C295.406708,510.714691 291.869324,511.518860 288.665955,512.661499 
	C285.307098,513.000000 281.614166,513.000000 277.414124,512.583435 
	C275.558990,502.789093 274.211029,493.411285 273.036133,483.682007 
	C274.469574,478.555237 275.729919,473.780029 277.257751,469.200500 
	C279.721649,472.211823 281.917999,475.027405 284.387756,478.193481 
	C285.840668,476.136322 286.914551,474.690308 287.911530,473.193085 
	C301.413452,452.915985 314.891266,432.622864 328.423920,412.366302 
	C329.501953,410.752625 330.940338,409.379700 332.186523,408.293945 
	C328.305054,420.471619 324.455872,432.252625 320.589996,444.028198 
	C313.379791,465.990631 306.159912,487.949951 298.944092,509.910522 
z"/>
<path fill="#2764F0" opacity="1.000000" stroke="none" 
	d="
M272.863037,484.033508 
	C274.211029,493.411285 275.558990,502.789093 276.953491,512.583435 
	C263.979095,513.000000 250.958206,513.000000 237.468658,513.000000 
	C238.270447,503.924286 239.540878,494.848602 241.391205,485.376892 
	C252.268402,484.665100 262.565735,484.349304 272.863037,484.033508 
z"/>
<path fill="#3F4751" opacity="1.000000" stroke="none" 
	d="
M148.769379,209.848785 
	C135.179138,196.086456 130.352264,179.406693 130.850723,160.307175 
	C131.471481,136.522385 130.999695,112.709076 130.999695,88.908081 
	C130.999695,87.108353 130.999695,85.308617 130.999695,82.760880 
	C172.949081,82.760880 214.483032,82.760880 256.494019,83.277573 
	C256.977478,127.822960 256.969421,171.851669 257.035919,215.880264 
	C257.039032,217.932495 257.708466,219.983704 257.925293,222.245239 
	C257.514832,222.660934 257.246643,222.866760 256.574219,223.032776 
	C252.254669,223.674545 248.343765,224.913376 244.423309,224.944443 
	C223.825058,225.107727 203.223083,225.078583 182.625702,224.835266 
	C178.454483,224.785980 174.297546,223.526871 169.496628,222.718155 
	C169.496628,241.453018 169.496628,259.637665 169.496628,278.823273 
	C165.769058,277.799011 162.824600,276.989960 159.647507,275.999390 
	C158.227768,274.981079 157.040665,274.144226 155.594635,273.009613 
	C150.931610,267.922577 149.496185,262.201996 149.563995,255.807465 
	C149.707962,242.231979 149.636597,228.653717 149.568909,215.077026 
	C149.560211,213.332993 149.048218,211.591476 148.769379,209.848785 
z"/>
<path fill="#34393F" opacity="1.000000" stroke="none" 
	d="
M258.067566,222.035385 
	C257.708466,219.983704 257.039032,217.932495 257.035919,215.880264 
	C256.969421,171.851669 256.977478,127.822960 256.958282,83.312759 
	C267.039459,82.767761 277.145233,82.412872 287.220093,82.821602 
	C290.172913,82.941383 293.037750,85.230499 296.449829,86.751289 
	C299.911865,81.699173 306.185272,82.892845 312.115814,82.767761 
	C336.690308,82.249443 356.663116,91.586998 372.464355,111.169922 
	C373.236298,112.085258 373.640961,112.520226 374.045624,112.955185 
	C374.045624,112.955185 373.998138,112.996033 374.082214,113.235352 
	C374.436096,113.677307 374.705841,113.879951 374.975616,114.082596 
	C374.975616,114.082596 374.957733,114.026756 374.933960,114.044510 
	C388.931183,135.202469 387.619080,159.044861 386.608490,182.686493 
	C386.114288,194.247574 380.815735,204.087784 372.219055,212.753204 
	C365.263214,216.410461 363.735992,221.691513 364.292023,228.647797 
	C364.923370,236.546814 364.206329,244.543823 364.505188,252.482056 
	C364.787506,259.980713 363.644684,266.926941 358.940948,272.993683 
	C358.940948,272.993683 359.011078,273.015228 358.795105,273.019196 
	C358.295349,273.167511 358.074921,273.378113 357.917816,273.654968 
	C356.969421,274.266876 356.020996,274.878815 354.509155,275.822815 
	C351.021698,276.978912 348.097656,277.802917 344.371887,278.852875 
	C344.371887,260.380707 344.371887,243.012787 344.371887,225.431549 
	C317.644012,225.240479 301.282715,212.077942 294.139526,186.238571 
	C286.851654,203.907776 275.785370,216.397034 258.067566,222.035385 
z"/>
<path fill="#FFBDA8" opacity="1.000000" stroke="none" 
	d="
M257.925293,222.245239 
	C275.785370,216.397034 286.851654,203.907776 294.139526,186.238571 
	C301.282715,212.077942 317.644012,225.240479 344.371887,225.431549 
	C344.371887,243.012787 344.371887,260.380707 344.371887,278.852875 
	C348.097656,277.802917 351.021698,276.978912 354.295563,276.088074 
	C354.175598,291.083038 351.509766,305.635345 344.983429,319.367798 
	C334.556915,341.306854 317.785034,356.756287 295.696533,367.749176 
	C291.549377,369.841156 287.863007,371.416565 284.418213,373.409546 
	C277.301025,377.527191 269.954681,380.813171 261.564087,381.017914 
	C257.885315,381.107666 256.902649,383.093750 256.928802,386.540100 
	C257.052582,402.842010 256.954132,419.145538 257.031616,435.448029 
	C257.039062,437.004517 257.716766,438.557892 257.894867,440.341003 
	C257.141235,440.706116 256.576019,440.842896 255.841400,440.692383 
	C247.750229,433.333405 239.761093,426.335510 231.925507,419.169708 
	C223.861191,411.794739 215.946640,404.255981 207.966553,396.788910 
	C213.398315,391.198242 218.026443,385.196106 218.302643,376.130249 
	C218.619492,373.249390 218.788635,371.128387 219.337952,369.008606 
	C223.052383,370.458435 226.353561,371.989868 229.728012,373.337860 
	C236.029816,375.855316 242.243073,378.719177 248.736343,380.598785 
	C255.719482,382.620239 256.992218,381.314575 256.991791,374.316315 
	C256.988739,323.901733 256.983215,273.487183 256.978485,223.072601 
	C257.246643,222.866760 257.514832,222.660934 257.925293,222.245239 
z"/>
<path fill="#FFCCBC" opacity="1.000000" stroke="none" 
	d="
M256.574219,223.032776 
	C256.983215,273.487183 256.988739,323.901733 256.991791,374.316315 
	C256.992218,381.314575 255.719482,382.620239 248.736343,380.598785 
	C242.243073,378.719177 236.029816,375.855316 229.728012,373.337860 
	C226.353561,371.989868 223.052383,370.458435 219.159485,368.721893 
	C212.759109,364.851379 206.917404,361.268738 201.075714,357.686096 
	C201.022141,357.384796 200.855789,357.171417 200.186615,356.743408 
	C199.222061,356.223724 198.647522,356.006592 198.072998,355.789459 
	C198.072998,355.789459 198.056122,355.914886 198.089386,355.611450 
	C197.769730,355.146698 197.416824,354.985413 197.063904,354.824097 
	C197.063904,354.824097 197.026779,354.933624 197.030991,354.648193 
	C196.710480,354.132507 196.385773,353.902283 196.061066,353.672058 
	C186.649490,345.592468 178.534592,336.428802 172.422729,325.567108 
	C165.802612,313.802216 161.980682,301.147522 160.212112,286.962891 
	C160.062378,282.805573 159.971252,279.493225 159.880142,276.180878 
	C162.824600,276.989960 165.769058,277.799011 169.496628,278.823273 
	C169.496628,259.637665 169.496628,241.453018 169.496628,222.718155 
	C174.297546,223.526871 178.454483,224.785980 182.625702,224.835266 
	C203.223083,225.078583 223.825058,225.107727 244.423309,224.944443 
	C248.343765,224.913376 252.254669,223.674545 256.574219,223.032776 
z"/>
<path fill="#27488F" opacity="1.000000" stroke="none" 
	d="
M176.947388,500.846161 
	C139.776886,488.734650 107.257416,468.922211 78.995605,441.494690 
	C90.440338,436.815186 102.028023,432.369141 113.665207,428.056610 
	C127.189713,423.044678 140.757614,418.149841 154.484924,413.559143 
	C154.558487,433.441132 154.408691,452.968109 154.398804,472.495209 
	C154.397354,475.359863 156.002731,477.159851 159.055695,477.952911 
	C164.655899,479.407623 170.104218,481.449188 175.707809,482.888000 
	C178.789719,483.679291 180.361435,484.470764 179.248672,488.204620 
	C178.032745,492.284729 177.677673,496.621338 176.947388,500.846161 
z"/>
<path fill="#1A3B69" opacity="1.000000" stroke="none" 
	d="
M177.327026,500.936127 
	C177.677673,496.621338 178.032745,492.284729 179.248672,488.204620 
	C180.361435,484.470764 178.789719,483.679291 175.707809,482.888000 
	C170.104218,481.449188 164.655899,479.407623 159.055695,477.952911 
	C156.002731,477.159851 154.397354,475.359863 154.398804,472.495209 
	C154.408691,452.968109 154.558487,433.441132 154.853439,413.552063 
	C163.274353,410.153107 171.504974,407.116211 180.112656,404.427094 
	C180.949478,405.843781 181.409241,406.912720 181.869003,407.981628 
	C187.050858,423.997620 192.202560,440.023407 197.422623,456.026947 
	C203.149002,473.582794 208.938385,491.118042 214.396942,508.826477 
	C205.740356,507.519073 197.355957,506.200470 189.047760,504.507935 
	C185.191010,503.722198 181.482407,502.209351 177.327026,500.936127 
z"/>
<path fill="#FFFEFE" opacity="1.000000" stroke="none" 
	d="
M182.185272,408.124634 
	C181.409241,406.912720 180.949478,405.843781 180.467590,404.415222 
	C187.067627,400.657196 193.772049,397.407349 200.280792,393.804047 
	C204.114349,391.681732 204.972885,395.737030 207.643555,396.710388 
	C215.946640,404.255981 223.861191,411.794739 231.925507,419.169708 
	C239.761093,426.335510 247.750229,433.333405 255.842804,440.961365 
	C256.018097,441.696869 256.022552,441.876068 255.873901,442.353241 
	C249.484344,451.434540 243.247849,460.217834 237.011353,469.001160 
	C234.620026,471.911957 232.228699,474.822754 229.468826,478.182159 
	C220.759796,465.132080 212.411423,452.562836 203.999710,440.036102 
	C196.871674,429.421082 189.670410,418.855225 182.185272,408.124634 
z"/>
<path fill="#FBBAA5" opacity="1.000000" stroke="none" 
	d="
M148.432068,209.933807 
	C149.048218,211.591476 149.560211,213.332993 149.568909,215.077026 
	C149.636597,228.653717 149.707962,242.231979 149.563995,255.807465 
	C149.496185,262.201996 150.931610,267.922577 155.106323,272.991638 
	C150.916733,272.188446 146.956528,271.105438 142.996323,270.022430 
	C137.369537,265.115356 131.758163,260.284149 128.915894,252.979141 
	C122.230354,235.796432 130.032654,218.127655 148.432068,209.933807 
z"/>
<path fill="#EF4906" opacity="1.000000" stroke="none" 
	d="
M143.036896,270.363525 
	C146.956528,271.105438 150.916733,272.188446 155.365265,273.289398 
	C157.040665,274.144226 158.227768,274.981079 159.647507,275.999390 
	C159.971252,279.493225 160.062378,282.805573 160.110199,286.574585 
	C154.403763,281.589020 148.740616,276.146820 143.036896,270.363525 
z"/>
<path fill="#F14E0B" opacity="1.000000" stroke="none" 
	d="
M201.076721,358.053101 
	C206.917404,361.268738 212.759109,364.851379 218.779297,368.720703 
	C218.788635,371.128387 218.619492,373.249390 218.272491,375.712036 
	C212.422333,370.175842 206.750046,364.297974 201.076721,358.053101 
z"/>
<path fill="#F14E0B" opacity="1.000000" stroke="none" 
	d="
M198.225021,356.076019 
	C198.647522,356.006592 199.222061,356.223724 199.980682,356.703003 
	C199.568863,356.764313 198.972946,356.563446 198.225021,356.076019 
z"/>
<path fill="#F04500" opacity="1.000000" stroke="none" 
	d="
M373.995697,112.636948 
	C373.640961,112.520226 373.236298,112.085258 372.718506,111.364571 
	C373.052185,111.492142 373.498993,111.905426 373.995697,112.636948 
z"/>
<path fill="#F14E0B" opacity="1.000000" stroke="none" 
	d="
M197.172928,355.075500 
	C197.416824,354.985413 197.769730,355.146698 198.152634,355.609131 
	C197.882401,355.715820 197.582169,355.521332 197.172928,355.075500 
z"/>
<path fill="#F14E0B" opacity="1.000000" stroke="none" 
	d="
M196.160248,353.947357 
	C196.385773,353.902283 196.710480,354.132507 197.087402,354.660889 
	C196.846222,354.713562 196.552826,354.468109 196.160248,353.947357 
z"/>
<path fill="#F04500" opacity="1.000000" stroke="none" 
	d="
M374.890137,113.845856 
	C374.705841,113.879951 374.436096,113.677307 374.108521,113.219559 
	C374.302032,113.179329 374.553345,113.394218 374.890137,113.845856 
z"/>
<path fill="#27488F" opacity="1.000000" stroke="none" 
	d="
M433.779877,442.005432 
	C421.721008,455.677155 406.910736,465.996063 391.705414,475.588806 
	C375.006836,486.123596 357.112122,494.443634 338.206268,500.398407 
	C337.435303,500.641235 336.616425,500.731873 335.668396,500.636078 
	C335.851532,499.243805 336.601196,498.048706 336.447052,496.984497 
	C335.856903,492.910583 334.976318,488.878754 334.096405,484.266602 
	C341.296539,482.060699 348.377106,479.823395 355.503662,477.743774 
	C358.115112,476.981750 359.173462,475.679321 359.150238,472.800659 
	C358.990540,452.985443 359.014893,433.168701 358.980042,413.352478 
	C383.833618,422.810181 408.687225,432.267883 433.779877,442.005432 
z"/>
<path fill="#12244B" opacity="1.000000" stroke="none" 
	d="
M358.643097,413.185699 
	C359.014893,433.168701 358.990540,452.985443 359.150238,472.800659 
	C359.173462,475.679321 358.115112,476.981750 355.503662,477.743774 
	C348.377106,479.823395 341.296539,482.060699 334.096405,484.266602 
	C334.976318,488.878754 335.856903,492.910583 336.447052,496.984497 
	C336.601196,498.048706 335.851532,499.243805 335.282043,500.634460 
	C328.468109,502.911469 321.942841,505.137024 315.292603,506.888000 
	C310.197845,508.229401 304.945374,508.971619 299.353577,509.945435 
	C306.159912,487.949951 313.379791,465.990631 320.589996,444.028198 
	C324.455872,432.252625 328.305054,420.471619 332.407288,408.097656 
	C333.062531,406.358398 333.472260,405.214569 333.881958,404.070740 
	C342.023346,407.053467 350.164764,410.036194 358.643097,413.185699 
z"/>
<path fill="#E8EAF4" opacity="1.000000" stroke="none" 
	d="
M333.576416,403.908752 
	C333.472260,405.214569 333.062531,406.358398 332.432037,407.698547 
	C330.940338,409.379700 329.501953,410.752625 328.423920,412.366302 
	C314.891266,432.622864 301.413452,452.915985 287.911530,473.193085 
	C286.914551,474.690308 285.840668,476.136322 284.387756,478.193481 
	C281.917999,475.027405 279.721649,472.211823 277.134827,468.883240 
	C270.892303,460.210358 265.078064,452.022736 259.135193,443.929565 
	C258.474182,443.029388 257.080750,442.667053 256.026978,442.055267 
	C256.022552,441.876068 256.018097,441.696869 256.012268,441.248688 
	C256.576019,440.842896 257.141235,440.706116 258.191345,440.183136 
	C274.822784,425.293854 290.969299,410.790741 307.115784,396.287628 
	C309.868622,392.947083 312.715088,392.810150 316.494537,395.080078 
	C321.879333,398.314148 327.659576,400.889801 333.576416,403.908752 
z"/>
<path fill="#FAA68C" opacity="1.000000" stroke="none" 
	d="
M306.768768,396.192505 
	C290.969299,410.790741 274.822784,425.293854 258.379791,439.954834 
	C257.716766,438.557892 257.039062,437.004517 257.031616,435.448029 
	C256.954132,419.145538 257.052582,402.842010 256.928802,386.540100 
	C256.902649,383.093750 257.885315,381.107666 261.564087,381.017914 
	C269.954681,380.813171 277.301025,377.527191 284.418213,373.409546 
	C287.863007,371.416565 291.549377,369.841156 295.471130,368.018951 
	C295.611664,376.617462 295.886444,385.166901 302.100922,392.130096 
	C303.396454,393.581696 304.974121,394.781494 306.768768,396.192505 
z"/>
<path fill="#FDBBA6" opacity="1.000000" stroke="none" 
	d="
M359.345673,273.098724 
	C363.644684,266.926941 364.787506,259.980713 364.505188,252.482056 
	C364.206329,244.543823 364.923370,236.546814 364.292023,228.647797 
	C363.735992,221.691513 365.263214,216.410461 372.017303,213.054489 
	C382.543152,220.680603 388.043030,230.615295 387.096436,243.824448 
	C386.045502,258.490234 374.424408,271.153656 359.345673,273.098724 
z"/>
<path fill="#FDBBA6" opacity="1.000000" stroke="none" 
	d="
M358.148254,273.611053 
	C358.074921,273.378113 358.295349,273.167511 358.807739,272.984772 
	C358.927094,273.269745 358.707886,273.476654 358.148254,273.611053 
z"/>
<path fill="#4B79FF" opacity="1.000000" stroke="none" 
	d="
M255.873901,442.353241 
	C257.080750,442.667053 258.474182,443.029388 259.135193,443.929565 
	C265.078064,452.022736 270.892303,460.210358 276.867310,468.687500 
	C275.729919,473.780029 274.469574,478.555237 273.036133,483.682007 
	C262.565735,484.349304 252.268402,484.665100 241.507721,484.987671 
	C239.819489,479.886871 238.594589,474.779297 237.190521,469.336456 
	C243.247849,460.217834 249.484344,451.434540 255.873901,442.353241 
z"/>
</svg>
